<svg data-v-423bf9ae="" xmlns="http://www.w3.org/2000/svg" viewBox="0 0 321.2845758592043 163" class="iconAbove"><!----><!----><!----><g data-v-423bf9ae="" id="a2606fab-384b-494d-9e63-d91a6e82e2ab" fill="white" transform="matrix(4.480956141520432,0,0,4.480956141520432,-3.002242378150328,87.2718418402298)"><path d="M3.92 13.71Q3.09 13.71 2.15 13.48Q1.20 13.26 0.67 12.99L0.67 12.99L0.88 11.09Q2.73 11.98 4.13 11.98L4.13 11.98Q4.87 11.98 5.29 11.70Q5.71 11.41 5.71 10.85L5.71 10.85Q5.71 10.43 5.48 10.16Q5.25 9.88 4.82 9.70Q4.38 9.51 3.43 9.17L3.43 9.17Q2.53 8.86 1.95 8.52Q1.36 8.18 1.02 7.64Q0.67 7.10 0.67 6.31L0.67 6.31Q0.67 5.05 1.60 4.28Q2.52 3.51 4.24 3.51L4.24 3.51Q5.05 3.51 5.86 3.70Q6.66 3.88 7.34 4.14L7.34 4.14L7.15 5.98Q6.29 5.60 5.57 5.41Q4.84 5.22 4.13 5.22L4.13 5.22Q3.33 5.22 2.91 5.49Q2.49 5.75 2.49 6.26L2.49 6.26Q2.49 6.65 2.72 6.90Q2.94 7.15 3.33 7.32Q3.71 7.49 4.47 7.73L4.47 7.73Q6.16 8.26 6.94 8.95Q7.71 9.65 7.71 10.85L7.71 10.85Q7.71 12.00 6.92 12.85Q6.12 13.71 3.92 13.71L3.92 13.71ZM12.31 13.65Q11.09 13.65 10.23 13.15Q9.37 12.66 8.94 11.82Q8.51 10.99 8.51 9.97L8.51 9.97Q8.51 8.99 8.92 8.18Q9.32 7.36 10.09 6.88Q10.86 6.40 11.93 6.40L11.93 6.40Q12.91 6.40 13.59 6.80Q14.27 7.21 14.61 7.90Q14.95 8.58 14.95 9.44L14.95 9.44Q14.95 9.86 14.84 10.39L14.84 10.39L10.32 10.39Q10.46 11.31 11.05 11.77Q11.63 12.22 12.46 12.22L12.46 12.22Q13.59 12.22 14.56 11.65L14.56 11.65L14.64 13.12Q14.20 13.36 13.60 13.50Q13.01 13.65 12.31 13.65L12.31 13.65ZM10.36 9.21L13.19 9.21Q13.19 8.67 12.88 8.25Q12.57 7.83 11.93 7.83L11.93 7.83Q11.28 7.83 10.89 8.20Q10.50 8.58 10.36 9.21L10.36 9.21ZM18.42 13.65Q17.50 13.65 17.02 13.11Q16.55 12.57 16.55 11.82L16.55 11.82L16.55 7.94L15.55 7.94L15.71 6.51L16.55 6.51L16.55 4.97L18.28 4.79L18.28 6.51L19.82 6.51L19.82 7.94L18.28 7.94L18.28 11.10Q18.28 11.66 18.35 11.88Q18.41 12.10 18.61 12.16Q18.82 12.22 19.35 12.22L19.35 12.22L19.82 12.22L19.67 13.65L18.42 13.65ZM25.33 6.51L27.06 6.51L27.06 13.51L25.44 13.51L25.41 13.09Q25.09 13.33 24.67 13.49Q24.25 13.65 23.86 13.65L23.86 13.65Q22.30 13.65 21.60 12.75Q20.89 11.86 20.89 10.28L20.89 10.28L20.89 6.51L22.62 6.51L22.62 10.28Q22.62 11.26 22.95 11.72Q23.28 12.19 24.01 12.19L24.01 12.19Q24.82 12.19 25.33 11.61L25.33 11.61L25.33 6.51ZM32.34 6.40Q33.33 6.40 34.05 6.89Q34.76 7.38 35.13 8.20Q35.49 9.03 35.49 10.02L35.49 10.02Q35.49 11.02 35.13 11.84Q34.76 12.67 34.05 13.16Q33.33 13.65 32.34 13.65L32.34 13.65Q31.71 13.65 31.27 13.52Q30.83 13.38 30.42 13.09L30.42 13.09L30.42 16.90L28.69 16.90L28.69 6.51L30.09 6.51L30.27 7.15Q30.72 6.78 31.21 6.59Q31.70 6.40 32.34 6.40L32.34 6.40ZM32.07 12.22Q32.84 12.22 33.28 11.62Q33.71 11.02 33.71 10.02L33.71 10.02Q33.71 9.03 33.28 8.43Q32.84 7.83 32.07 7.83L32.07 7.83Q31.21 7.83 30.77 8.41Q30.34 9.00 30.34 10.02L30.34 10.02Q30.34 11.05 30.77 11.63Q31.21 12.22 32.07 12.22L32.07 12.22ZM50.08 13.51L48.22 13.51L47.38 6.94L44.87 11.45L42.35 6.96L41.51 13.51L39.65 13.51L41.01 3.71L42.48 3.71L44.87 8.18L47.25 3.71L48.72 3.71L50.08 13.51ZM51.37 5.45L51.37 3.71L53.10 3.71L53.10 5.45L51.37 5.45ZM51.37 13.51L51.37 6.51L53.10 6.51L53.10 13.51L51.37 13.51ZM54.05 13.51L56.38 10.01L54.05 6.51L56.13 6.51L57.40 8.54L58.58 6.51L60.65 6.51L58.32 10.01L60.65 13.51L58.58 13.51L57.30 11.48L56.13 13.51L54.05 13.51ZM64.75 13.65Q63.53 13.65 62.67 13.15Q61.81 12.66 61.38 11.82Q60.96 10.99 60.96 9.97L60.96 9.97Q60.96 8.99 61.36 8.18Q61.77 7.36 62.54 6.88Q63.31 6.40 64.37 6.40L64.37 6.40Q65.35 6.40 66.03 6.80Q66.71 7.21 67.05 7.90Q67.40 8.58 67.40 9.44L67.40 9.44Q67.40 9.86 67.28 10.39L67.28 10.39L62.76 10.39Q62.90 11.31 63.49 11.77Q64.08 12.22 64.90 12.22L64.90 12.22Q66.04 12.22 67.00 11.65L67.00 11.65L67.09 13.12Q66.64 13.36 66.05 13.50Q65.45 13.65 64.75 13.65L64.75 13.65ZM62.80 9.21L65.63 9.21Q65.63 8.67 65.32 8.25Q65.02 7.83 64.37 7.83L64.37 7.83Q63.73 7.83 63.34 8.20Q62.94 8.58 62.80 9.21L62.80 9.21ZM68.59 13.51L68.59 6.51L70.21 6.51L70.25 7.25Q70.56 6.90 71.04 6.64Q71.53 6.37 72.06 6.37L72.06 6.37Q72.23 6.37 72.37 6.40L72.37 6.40L72.24 8.11Q71.97 8.04 71.64 8.04L71.64 8.04Q71.20 8.04 70.84 8.24Q70.48 8.44 70.32 8.74L70.32 8.74L70.32 13.51L68.59 13.51Z"></path></g><!----><g data-v-423bf9ae="" id="7f63f511-775d-464e-b42f-80fd4528fa26" transform="matrix(1.264071546367228,0,0,1.264071546367228,97.84844408450354,0)" stroke="none" fill="white"><path d="M97.223 16.667H80.101c1.177-2.968 2.185-4.664 2.209-4.704 1.996-3.204 1.002-7.493-2.243-9.519a6.921 6.921 0 00-3.676-1.055 6.91 6.91 0 00-5.884 3.255c-.474.756-3.052 5.055-5.157 12.023H2.777a2.778 2.778 0 000 5.555h5.795v46.199a2.777 2.777 0 005.555 0V22.222h49.804a67.162 67.162 0 00-.596 3.256c-6.62-1.076-16.328-1.965-18.658 1.529-1.521 2.279-.543 3.965.402 5.594.3.518.622 1.086.924 1.732-3.54.241-6.601 1.147-9.3 2.767-3.282 1.971-4.352 6.244-2.381 9.527A6.98 6.98 0 0040.279 50a6.935 6.935 0 003.571-.99c.973-.582 2.31-.865 4.089-.865 2.242 0 4.892.452 7.453.889.514.087 1.033.173 1.552.259v9.101c-5.315.422-9.445 3.241-10.258 6.938a2.776 2.776 0 00.536 5.502 2.776 2.776 0 002.777-2.777c0-.681-.254-1.297-.661-1.78.306-2.551 3.551-4.683 7.605-5.088v4.475a2.767 2.767 0 00-1.389 2.394 2.776 2.776 0 002.777 2.777 2.776 2.776 0 002.778-2.777 2.767 2.767 0 00-1.389-2.393v-4.476c4.054.405 7.3 2.538 7.605 5.088a2.759 2.759 0 00-.661 1.78 2.777 2.777 0 103.312-2.725c-.813-3.697-4.941-6.516-10.257-6.938v-8.688c1.398.174 2.793.294 4.17.294 8.294 0 12.5-4.673 12.5-13.889 0-5.341.83-10.066 1.867-13.889h10.633v46.199a2.778 2.778 0 005.555 0V22.222h2.778a2.778 2.778 0 00.001-5.555zM46.989 28.548c1.144-1.718 8.448-1.5 15.967-.305a68.245 68.245 0 00-.456 7.797c-1.405-.126-3.056-.407-4.777-.7-2.662-.454-5.651-.94-8.728-1.039-.481-1.296-1.05-2.296-1.513-3.094-.921-1.589-1.019-1.87-.493-2.659zm30.578-19.48c-.033.054-1.729 2.826-3.409 7.598a58.318 58.318 0 00-1.646 5.556 58.93 58.93 0 00-1.679 13.889c0 6.152-1.817 8.333-6.944 8.333-2.338 0-4.876-.432-7.562-.889a279.86 279.86 0 00-2.073-.346l-.106-.017a77.946 77.946 0 00-1.986-.291l-.174-.021a40.939 40.939 0 00-1.902-.2c-.072-.005-.143-.009-.214-.015a26.956 26.956 0 00-1.828-.074c-.168-.001-.335.002-.502.005-.13.002-.259.004-.388.009-.186.007-.37.02-.555.031-.131.009-.262.017-.393.028-.177.016-.353.038-.529.06-.134.017-.268.03-.401.05-.168.025-.334.058-.5.089-.136.025-.273.048-.407.076-.161.035-.32.079-.479.12-.135.035-.271.066-.405.105-.158.047-.312.103-.468.156-.13.044-.262.084-.391.134-.119.045-.233.101-.35.15-.045.019-.09.037-.134.058-.115.051-.232.095-.346.15a9.997 9.997 0 00-.801.432 1.385 1.385 0 01-1.905-.476 1.389 1.389 0 01.476-1.906c.321-.193.648-.369.979-.531l.004-.002c.211-.103.428-.189.643-.281.12-.051.237-.109.358-.156.221-.086.445-.157.669-.231.12-.04.238-.087.359-.124.218-.066.44-.118.661-.175.13-.032.258-.072.389-.102.212-.048.427-.084.641-.123.143-.026.283-.059.426-.081.198-.031.399-.053.599-.077.162-.02.322-.045.484-.062.186-.018.374-.026.561-.04.178-.013.355-.029.534-.037.112-.005.225-.005.337-.008.071-.003.142-.003.213-.005.177-.004.353-.012.53-.012l.015.001c.671 0 1.346.029 2.021.076l.171.01.04.003c.736.055 1.473.134 2.205.227l.024.003a76.08 76.08 0 012.193.318l.015.003c.729.116 1.448.238 2.157.359 2.569.438 4.995.85 7.098.85.386 0 .74-.007 1.065-.029 2.274-.157 3.102-1.064 3.102-5.526a61.94 61.94 0 01.736-9.507 60.55 60.55 0 012.402-9.939c1.851-5.547 3.863-8.821 4.019-9.07.06-.095.131-.177.208-.252.024-.024.051-.044.076-.066a1.571 1.571 0 01.272-.182c.071-.035.148-.065.228-.088.021-.006.04-.015.061-.021.101-.024.204-.037.308-.038.008 0 .015-.003.022-.003.018 0 .035.007.054.007.089.003.177.016.265.037.032.008.063.015.096.025.106.034.212.077.312.139l.008.003c.217.136.362.331.473.542.219.422.238.938-.032 1.371z"></path><path d="M18.056 13.889h18.056a2.777 2.777 0 000-5.555H18.056a2.778 2.778 0 000 5.555zM20.833 5.556h12.5a2.778 2.778 0 000-5.556h-12.5a2.777 2.777 0 000 5.556z"></path></g><!----></svg>